<?xml version="1.0" standalone="no"?>
<!DOCTYPE svg PUBLIC "-//W3C//DTD SVG 20010904//EN"
 "http://www.w3.org/TR/2001/REC-SVG-20010904/DTD/svg10.dtd">
<svg version="1.0" xmlns="http://www.w3.org/2000/svg"
 width="980.000000pt" height="980.000000pt" viewBox="0 0 980.000000 980.000000"
 preserveAspectRatio="xMidYMid meet">

<g transform="translate(0.000000,980.000000) scale(0.100000,-0.100000)"
fill="#000000" stroke="none">
<path d="M3315 8409 c-265 -27 -498 -101 -656 -208 -63 -42 -164 -144 -211
-214 -127 -187 -202 -429 -218 -702 -7 -123 -9 -135 -48 -221 -108 -241 -89
-429 62 -631 61 -81 72 -107 192 -465 153 -456 249 -679 386 -897 314 -499
809 -760 1479 -778 374 -11 675 45 956 177 475 224 759 605 1013 1363 24 70
47 127 51 127 18 0 69 -98 83 -160 20 -86 20 -144 1 -252 -74 -424 -433 -911
-939 -1272 -537 -384 -1220 -633 -2016 -736 -241 -31 -385 -39 -674 -40 l-268
-1 -51 39 c-81 61 -261 236 -329 321 -230 285 -348 579 -348 870 -1 257 -52
381 -160 381 -68 0 -116 -61 -147 -187 -22 -91 -22 -364 0 -526 41 -298 143
-626 264 -850 15 -26 24 -48 22 -50 -2 -2 -49 -13 -104 -25 -323 -71 -575
-319 -656 -644 -16 -66 -21 -129 -26 -303 -7 -275 6 -424 48 -550 104 -311
368 -535 691 -585 54 -8 907 -10 3233 -8 3045 3 3162 4 3225 22 91 26 221 88
293 140 121 86 250 248 297 374 54 142 61 194 66 452 5 361 -9 466 -90 635
-107 225 -314 395 -563 462 l-98 27 -507 5 -507 6 66 55 c129 107 318 338 420
515 273 471 406 1049 372 1625 -53 926 -532 1589 -1255 1739 -54 11 -112 22
-128 23 -28 3 -31 7 -48 78 -73 302 -203 520 -394 660 -99 72 -297 149 -474
184 -198 39 -581 46 -915 15 -173 -15 -475 -13 -739 5 -241 17 -516 19 -651 5z
m614 -134 c129 -8 237 -17 240 -20 2 -3 -2 -13 -11 -22 -15 -14 -34 -14 -194
-3 -98 6 -266 12 -373 12 -167 0 -199 3 -215 17 -17 15 -17 16 10 22 53 12
307 9 543 -6z m1596 -9 c291 -46 493 -142 623 -296 144 -172 225 -409 239
-700 6 -113 9 -133 41 -205 72 -168 86 -232 70 -330 -26 -171 -157 -319 -358
-405 -184 -78 -471 -110 -680 -76 -204 34 -375 103 -529 215 -153 109 -344
234 -411 267 -61 30 -79 34 -145 34 -45 0 -90 -6 -112 -15 -48 -20 -193 -111
-323 -204 -236 -168 -332 -218 -506 -266 -217 -61 -475 -59 -701 4 -43 12 -43
12 -43 60 0 74 -26 145 -81 217 l-49 66 6 116 c10 196 -31 317 -145 424 l-64
61 11 111 c41 384 189 652 437 791 66 37 231 94 333 115 l63 13 31 -39 c189
-236 391 -307 605 -211 64 30 101 39 181 47 165 17 223 46 273 136 30 53 32
54 77 54 43 0 190 9 512 30 172 11 536 4 645 -14z m1098 -955 c85 -15 227 -65
327 -115 134 -67 241 -148 354 -264 97 -100 96 -91 22 -164 -114 -114 -169
-258 -169 -438 1 -193 57 -317 204 -451 50 -46 100 -100 110 -121 11 -21 30
-91 43 -155 13 -65 28 -129 34 -143 30 -74 114 -152 195 -181 21 -7 37 -20 37
-29 0 -40 -41 -287 -65 -389 -32 -141 -102 -355 -152 -467 l-38 -85 -37 6
c-108 16 -246 -54 -330 -167 -74 -98 -97 -267 -50 -357 l24 -45 -44 -39 c-68
-61 -189 -157 -230 -183 l-38 -24 -1397 1 -1398 1 145 39 c253 69 489 152 715
251 l99 44 27 -57 c29 -61 75 -103 136 -125 49 -17 192 -17 264 0 88 20 119
43 177 131 86 131 151 189 282 255 141 70 217 152 267 286 30 81 42 262 25
354 -10 49 -9 58 9 80 63 81 182 271 231 370 100 200 148 377 148 552 0 165
-47 296 -137 379 -53 49 -53 49 7 203 25 65 57 125 86 162 157 201 175 404 60
657 -32 70 -36 87 -36 163 0 77 2 85 18 80 9 -3 43 -9 75 -15z m-4245 -288
c51 -83 69 -183 51 -293 -16 -99 -6 -138 57 -224 32 -44 58 -91 61 -111 7 -43
-12 -48 -29 -7 -7 15 -31 52 -54 82 -23 30 -45 64 -50 75 -5 11 -9 94 -9 185
-1 177 -7 205 -62 278 -23 31 -25 62 -4 62 5 0 22 -21 39 -47z m5112 -321 c0
-4 -14 -23 -31 -42 -74 -84 -109 -184 -110 -311 -1 -165 41 -252 180 -377 115
-105 141 -154 177 -342 16 -89 33 -131 67 -168 23 -25 31 -52 15 -52 -23 0
-78 43 -98 75 -12 20 -32 87 -45 155 -34 167 -59 214 -173 319 -52 48 -106
108 -122 137 -83 144 -79 351 11 500 47 79 130 146 129 106z m-3027 -88 c110
-56 476 -310 487 -338 14 -38 40 -221 40 -282 -1 -70 -13 -132 -41 -196 -18
-44 -18 -50 -4 -78 25 -48 64 -45 143 9 126 85 251 255 269 364 l6 39 46 -6
c180 -27 394 -23 539 7 34 8 62 10 62 7 0 -15 -186 -351 -252 -455 -179 -282
-382 -487 -628 -635 l-83 -50 -27 47 c-71 132 -145 209 -189 198 -38 -9 -53
-34 -47 -75 13 -78 18 -181 12 -223 -7 -44 -7 -45 -64 -60 -245 -68 -473 -67
-729 2 -41 11 -42 12 -49 67 -3 31 -3 84 1 118 15 126 13 148 -17 166 -25 13
-31 13 -55 0 -37 -21 -118 -123 -149 -188 l-25 -53 -41 23 c-226 125 -444 328
-606 562 -133 192 -335 556 -309 556 8 0 39 -5 68 -10 149 -29 335 -31 519 -5
l45 7 18 -64 c10 -34 33 -88 50 -118 42 -75 179 -209 245 -242 61 -31 89 -27
110 16 12 23 10 34 -14 94 -24 58 -27 81 -28 177 0 68 7 145 18 203 l19 92
111 78 c297 209 403 272 459 272 21 0 61 -12 90 -26z m-1926 -408 c15 -13 59
-82 97 -152 183 -342 284 -512 365 -614 173 -218 294 -334 469 -451 220 -147
408 -220 697 -270 178 -31 350 -22 576 30 338 77 666 283 915 574 148 173 253
336 424 659 96 182 140 248 167 248 8 0 13 -6 10 -12 -2 -7 -39 -116 -82 -243
-141 -420 -250 -666 -378 -860 -214 -321 -517 -534 -897 -630 -425 -107 -929
-74 -1300 85 -332 142 -579 386 -769 760 -74 144 -172 392 -246 620 -31 96
-63 189 -70 205 -34 79 -28 93 22 51z m1107 -18 c-3 -11 -9 -73 -13 -137 l-6
-116 -39 59 c-38 60 -66 124 -66 155 0 10 20 24 58 38 73 27 75 27 66 1z
m1582 -57 c-6 -41 -48 -126 -81 -167 l-24 -29 -1 76 c0 42 -3 103 -6 137 l-7
60 62 -22 c63 -21 63 -21 57 -55z m-3583 -1376 c16 -439 172 -779 522 -1133
l122 -122 -186 2 -185 3 -33 60 c-154 275 -249 585 -283 921 -21 205 0 527 30
449 4 -11 10 -92 13 -180z m4397 -204 c0 -35 -7 -45 -87 -123 -49 -47 -106
-101 -128 -119 -22 -19 -42 -36 -45 -39 -3 -3 -43 -35 -90 -71 -140 -108 -410
-284 -487 -316 -26 -10 -33 -19 -33 -41 0 -15 5 -33 12 -40 13 -13 8 -15 -17
-6 -20 8 -45 56 -45 89 0 20 10 31 51 53 269 145 628 416 818 616 19 20 39 36
43 36 4 0 8 -17 8 -39z m1410 -381 c0 -5 -20 -19 -43 -30 -82 -39 -144 -127
-156 -222 -9 -75 -31 -76 -31 -1 0 69 23 124 74 181 52 57 156 105 156 72z
m-3183 -845 c19 -225 151 -374 373 -421 56 -12 106 -15 200 -11 223 10 358 61
457 174 l56 62 111 -6 c98 -5 118 -3 167 16 32 12 77 39 101 60 42 38 88 112
88 145 0 15 78 16 970 16 534 0 970 -3 970 -6 0 -3 -4 -13 -9 -22 -20 -38 -42
-182 -42 -275 1 -239 88 -380 301 -487 117 -59 172 -99 270 -200 41 -43 91
-86 110 -95 54 -28 140 -23 228 13 l72 30 0 -70 c0 -38 -7 -104 -16 -146 -31
-152 -95 -266 -214 -383 -61 -59 -99 -86 -171 -122 -178 -88 -35 -81 -1705
-84 l-1481 -4 -23 34 c-28 40 -74 74 -121 87 -19 6 -102 10 -185 10 -178 0
-251 16 -400 86 -156 73 -258 88 -402 58 -139 -29 -263 -98 -388 -217 l-62
-58 -893 4 c-688 3 -906 6 -944 16 -27 8 -51 15 -53 16 -2 2 4 29 14 61 23 78
14 137 -37 264 -40 99 -42 110 -42 205 0 55 7 138 17 184 47 241 -24 427 -212
555 -23 16 -80 43 -127 61 l-84 31 31 60 c97 185 267 321 469 373 72 19 114
20 1339 18 l1265 -2 2 -30z m1411 13 l-15 -23 -597 -3 -597 -2 6 -38 c11 -60
26 -104 52 -149 28 -49 23 -53 -23 -18 -42 32 -92 134 -101 203 l-6 52 648 0
647 0 -14 -22z m2440 7 c306 -72 545 -339 566 -630 3 -39 3 -59 0 -45 -37 183
-105 314 -221 423 -78 73 -100 89 -178 127 -102 49 -177 69 -291 77 l-92 6
-16 -56 c-9 -31 -21 -80 -26 -109 -10 -53 -20 -75 -20 -44 0 25 38 210 50 241
9 24 13 25 87 25 43 0 106 -7 141 -15z m-6869 -622 c83 -40 145 -98 182 -170
21 -42 24 -61 24 -158 0 -60 -6 -150 -14 -200 -8 -51 -11 -124 -8 -170 4 -76
11 -100 76 -278 19 -50 20 -63 10 -103 -17 -65 -42 -57 -50 16 -4 30 -20 87
-37 126 -16 39 -35 95 -41 123 -15 71 -13 210 4 306 21 117 19 213 -6 282 -28
77 -115 163 -205 204 -49 22 -64 34 -64 50 0 18 4 20 28 15 15 -4 60 -23 101
-43z m2962 -1079 c30 -9 79 -29 109 -44 48 -23 92 -40 215 -79 25 -8 16 -10
-50 -10 -73 -1 -88 3 -155 35 -178 85 -320 85 -479 -2 -43 -24 -74 -34 -95
-32 l-31 3 60 41 c56 38 117 68 190 92 47 16 176 14 236 -4z"/>
<path d="M2875 7787 c-63 -29 -121 -113 -145 -210 -14 -53 -3 -83 37 -98 43
-16 73 7 104 84 36 89 43 97 93 97 45 0 81 -16 199 -92 277 -176 827 -437
1052 -499 113 -31 260 -23 385 20 272 95 815 360 1007 493 66 44 144 78 185
78 44 0 70 -30 96 -112 21 -65 55 -87 99 -66 40 19 49 54 30 119 -36 122 -109
191 -211 197 -80 5 -141 -18 -282 -107 -266 -166 -738 -396 -967 -471 -158
-52 -206 -52 -362 0 -230 75 -791 350 -980 480 -91 62 -167 93 -240 97 -46 2
-80 -1 -100 -10z"/>
<path d="M2986 7490 c-51 -45 -71 -107 -71 -215 0 -153 45 -239 153 -292 51
-25 67 -28 162 -28 122 0 184 19 226 68 22 26 25 38 21 77 -17 162 -159 345
-309 398 -90 32 -139 29 -182 -8z m173 -135 c71 -36 149 -140 176 -232 8 -28
-18 -37 -105 -36 -131 0 -179 52 -180 191 0 92 10 114 48 103 16 -5 43 -16 61
-26z"/>
<path d="M5625 7506 c-72 -23 -127 -57 -181 -112 -63 -64 -96 -118 -129 -212
-32 -91 -32 -123 0 -161 41 -47 103 -66 225 -66 97 0 110 2 165 30 67 34 117
91 137 158 7 23 13 87 13 142 0 112 -17 160 -75 209 -36 29 -87 34 -155 12z
m83 -133 c32 -63 18 -194 -27 -242 -32 -34 -112 -54 -181 -45 -77 10 -79 13
-37 97 44 88 103 151 172 183 61 28 62 28 73 7z"/>
<path d="M2795 3091 c-65 -23 -78 -30 -199 -108 -55 -36 -133 -81 -172 -100
-174 -82 -252 -260 -210 -474 39 -195 140 -320 282 -349 66 -14 142 3 236 52
61 32 67 33 188 33 141 1 170 11 228 74 168 185 138 608 -57 801 -88 87 -187
111 -296 71z m143 -127 l37 -17 -42 -8 c-51 -10 -107 -37 -203 -102 -41 -27
-113 -70 -160 -95 -47 -24 -95 -53 -107 -64 -86 -79 -87 -311 -2 -435 40 -58
21 -54 -33 6 -57 64 -88 153 -88 255 0 141 40 206 168 270 48 24 119 65 157
91 95 64 186 110 228 114 4 1 24 -6 45 -15z"/>
<path d="M6385 2805 c-115 -25 -229 -82 -302 -152 -58 -54 -73 -93 -73 -188 0
-33 -6 -96 -14 -140 -22 -123 1 -212 74 -285 107 -107 271 -99 369 18 44 53
102 90 203 132 142 58 188 101 216 203 14 50 0 142 -31 211 -51 110 -151 186
-273 206 -74 12 -94 12 -169 -5z m226 -157 c38 -23 89 -76 89 -93 0 -3 -17 6
-37 19 -57 38 -132 51 -206 36 -74 -14 -173 -61 -226 -106 -37 -32 -38 -35
-45 -121 -4 -48 -13 -124 -20 -168 l-13 -80 -18 40 c-18 41 -18 51 5 195 5 36
10 89 10 117 0 51 2 54 43 84 54 40 147 87 195 99 67 17 175 6 223 -22z"/>
</g>
</svg>
